<svg width="96" height="56" viewBox="0 0 96 56" fill="none" xmlns="http://www.w3.org/2000/svg">
    <g clip-path="url(#clip0_2172_4041)">
        <path
            d="M94.0651 21.5876C81.7244 12.9412 63.2293 3.9192 49.3219 0.192712C48.3665 -0.0642373 47.3602 -0.0642373 46.4048 0.192712C32.5005 3.9192 14.0054 12.9412 1.66187 21.5876C0.606649 22.3267 0 23.4156 0 24.5624V31.4045C0 32.5514 0.606807 33.6403 1.66187 34.3794C14.0052 43.0256 32.5005 52.0476 46.405 55.7743C47.3602 56.0311 48.3663 56.0311 49.3215 55.7743C63.2291 52.0476 81.7243 43.0256 94.0649 34.3794C95.1199 33.6401 95.7265 32.5514 95.7265 31.4045V24.5624C95.7265 23.4156 95.1199 22.3267 94.0649 21.5876H94.0651Z"
            fill="#DB2524"/>
        <path
            d="M47.8638 49.4492C55.77 47.5655 65.6973 43.6653 75.045 39.4424C81.9817 35.7814 88.4856 31.7584 93.3342 27.9836C88.4856 24.2085 81.9814 20.1855 75.0447 16.5243C65.6968 12.3016 55.7698 8.40126 47.8638 6.5177C39.9576 8.40126 30.0308 12.3014 20.683 16.5243C13.7462 20.1855 7.24197 24.2085 2.39319 27.9836C7.24197 31.7584 13.7457 35.7812 20.6824 39.4424C30.0301 43.665 39.9574 47.5655 47.8638 49.4492Z"
            fill="url(#paint0_radial_2172_4041)"/>
        <path
            d="M20.6753 16.5275C30.0251 12.3036 39.955 8.4019 47.8632 6.51772C55.7714 8.4019 65.7012 12.3036 75.0506 16.5275C65.7922 11.6406 55.7616 7.39911 47.8632 5.25482C39.9646 7.39927 29.9341 11.6406 20.6753 16.5275ZM20.6753 39.4394C30.0251 43.6634 39.955 47.565 47.8632 49.4492C55.7714 47.565 65.7012 43.6634 75.0506 39.4394C65.7922 44.3263 55.7616 48.5677 47.8632 50.7121C39.9646 48.5677 29.9341 44.3263 20.6753 39.4394Z"
            fill="#FBCB07"/>
        <path
            d="M54.3806 25.5051C54.3806 26.4879 53.9062 26.9626 52.8895 26.9626H51.2626V20.9345H53.0249C53.9402 20.9345 54.3806 21.3754 54.3806 22.2905V25.5051ZM58.0071 34.2411V31.2169C58.0071 29.6895 56.7711 28.4535 55.2439 28.4535C56.7711 28.4535 58.0071 27.2177 58.0071 25.6901V22.1206C58.0071 19.1724 56.5496 17.7149 53.6012 17.7149H47.6363V38.252H51.2626V30.1139H52.856C53.9063 30.1139 54.3809 30.5888 54.3809 31.6393L54.3815 34.8653C54.3815 36.623 54.8439 37.651 55.7017 38.252H59.1421C58.407 37.2134 58.0072 35.8629 58.0071 34.2411ZM67.4057 33.8803C67.4057 34.829 66.9648 35.2699 66.05 35.2699H65.3045C64.3554 35.2699 63.915 34.829 63.915 33.8803V22.0867C63.915 21.1381 64.3554 20.6976 65.3045 20.6976H66.05C66.9648 20.6976 67.4057 21.1381 67.4057 22.0867V33.8803ZM66.6263 17.5116H64.6947C61.7462 17.5116 60.2888 18.9693 60.2888 21.9173V34.0494C60.2888 36.9981 61.7462 38.4551 64.6947 38.4551H66.6263C69.5748 38.4551 71.032 36.9981 71.032 34.0494V21.9173C71.032 18.9693 69.5748 17.5116 66.6263 17.5116ZM80.0532 27.6403L83.3744 38.252H79.6467L77.6467 30.5767L75.5117 38.252H72.0211L75.3422 27.9452L72.089 17.715H75.8169L77.7821 24.8023L79.8157 17.715H83.3067L80.0532 27.6403ZM40.3802 20.6976H39.635C38.6858 20.6976 38.2456 21.1381 38.2456 22.0867V33.8803C38.2456 34.829 38.6858 35.2699 39.635 35.2699H40.3802C41.2953 35.2699 41.7362 34.829 41.7362 33.8803V22.0867C41.7362 21.1381 41.2953 20.6976 40.3802 20.6976ZM40.9565 38.4554H39.0248C36.0764 38.4554 34.6187 36.9981 34.6187 34.0497V21.9173C34.6187 18.9693 36.0764 17.5116 39.0248 17.5116H40.9565C43.905 17.5116 45.3624 18.9693 45.3624 21.9173V34.0497C45.3624 36.9981 43.905 38.4554 40.9565 38.4554ZM29.539 17.715V34.9648H33.5378V38.252H25.9126V17.715H29.539ZM23.9307 30.3263V34.0497C23.9307 36.9981 22.4735 38.4554 19.5249 38.4554H17.7288C14.7804 38.4554 13.3229 36.9981 13.3229 34.0497V21.9173C13.3229 18.9693 14.7804 17.5116 17.7288 17.5116H19.4908C22.4393 17.5116 23.8631 18.9352 23.8631 21.8836V25.3447H20.3045V22.0867C20.3045 21.1381 19.8638 20.6976 18.9487 20.6976H18.3389C17.3895 20.6976 16.9494 21.1381 16.9494 22.0867V33.8803C16.9494 34.829 17.3895 35.2699 18.3389 35.2699H19.0164C19.9316 35.2699 20.3722 34.829 20.3722 33.8803V30.3263H23.9307Z"
            fill="white"/>
        <path
            d="M92.0741 39.9785C92.0741 39.8477 91.9506 39.7824 91.7037 39.7824H91.5072V40.1977H91.7113C91.9531 40.1977 92.0741 40.125 92.0741 39.9785ZM92.0893 41.0216C92.0791 40.9564 92.0703 40.8909 92.0627 40.8253C92.0548 40.7571 92.046 40.689 92.0363 40.6211C92.0161 40.5106 91.8952 40.4548 91.6735 40.4548H91.5072V41.0216H91.1747V39.5252H91.7266C92.1748 39.5252 92.399 39.6715 92.399 39.9636C92.399 40.1347 92.3085 40.2533 92.127 40.3186C92.268 40.3792 92.3461 40.4827 92.3612 40.6288C92.3916 40.8602 92.4116 40.9914 92.4219 41.0216H92.0893ZM92.9129 40.281C92.9129 39.9587 92.7971 39.6841 92.5653 39.4574C92.3387 39.2256 92.0665 39.1096 91.7491 39.1096C91.4317 39.1096 91.1596 39.2256 90.9329 39.4574C90.7061 39.694 90.5928 39.9685 90.5928 40.281C90.5928 40.5983 90.7061 40.873 90.9329 41.1049C91.1596 41.3315 91.4317 41.4449 91.7491 41.4449C92.0715 41.4449 92.3461 41.3315 92.5729 41.1049C92.7996 40.8779 92.9129 40.6035 92.9129 40.281ZM93.1548 40.281C93.1548 40.6689 93.0162 41.0015 92.7391 41.2786C92.467 41.5507 92.137 41.6867 91.7491 41.6867C91.3611 41.6867 91.0286 41.5481 90.7515 41.271C90.4794 40.9939 90.3434 40.6641 90.3434 40.281C90.3434 39.8982 90.4819 39.5681 90.759 39.2911C91.0412 39.009 91.3712 38.8677 91.7491 38.8677C92.137 38.8677 92.467 39.0064 92.7391 39.2836C93.0162 39.5605 93.1548 39.893 93.1548 40.281Z"
            fill="#28429E"/>
    </g>
    <defs>
        <radialGradient id="paint0_radial_2172_4041" cx="0" cy="0" r="1" gradientUnits="userSpaceOnUse"
                        gradientTransform="translate(78.9382 19.3893) rotate(180) scale(63.925)">
            <stop stop-color="#80D0F4"/>
            <stop offset="0.236" stop-color="#3766B9"/>
            <stop offset="0.532" stop-color="#28429E"/>
            <stop offset="1" stop-color="#28429E"/>
        </radialGradient>
        <clipPath id="clip0_2172_4041">
            <rect width="95.7265" height="56" fill="white"/>
        </clipPath>
    </defs>
</svg>
