<?xml version="1.0" encoding="UTF-8"?>
<svg xmlns:xlink="http://www.w3.org/1999/xlink" id="Layer_2" xmlns="http://www.w3.org/2000/svg"
     viewBox="0 0 838.86 479.43">
    <defs>
        <style>
            .cls-1{fill:url(#linear-gradient);}.cls-2{fill:#ef8422;}.cls-3{fill:#231f20;}.cls-4{fill:url(#linear-gradient-8);}.cls-5{fill:url(#linear-gradient-3);}.cls-6{fill:url(#linear-gradient-4);}.cls-7{fill:url(#linear-gradient-2);}.cls-8{fill:url(#linear-gradient-6);}.cls-9{fill:url(#linear-gradient-7);}.cls-10{fill:url(#linear-gradient-5);}
        </style>
        <linearGradient id="linear-gradient" x1="263.21" y1="-2.71" x2="263.21" y2="473.51"
                        gradientUnits="userSpaceOnUse">
            <stop offset="0" stop-color="#e4a426"/>
            <stop offset=".43" stop-color="#e4a125"/>
            <stop offset=".68" stop-color="#e79924"/>
            <stop offset=".89" stop-color="#ec8a22"/>
            <stop offset=".96" stop-color="#ef8422"/>
        </linearGradient>
        <linearGradient id="linear-gradient-2" x1="407.41" y1="-2.71" x2="407.41" y2="473.51"
                        xlink:href="#linear-gradient"/>
        <linearGradient id="linear-gradient-3" x1="221.61" y1="-2.71" x2="221.61" y2="473.51"
                        xlink:href="#linear-gradient"/>
        <linearGradient id="linear-gradient-4" x1="121.45" y1="-2.71" x2="121.45" y2="473.51"
                        xlink:href="#linear-gradient"/>
        <linearGradient id="linear-gradient-5" x1="117.07" y1="-2.71" x2="117.07" y2="473.51"
                        xlink:href="#linear-gradient"/>
        <linearGradient id="linear-gradient-6" x1="152.49" y1="-2.71" x2="152.49" y2="473.51"
                        xlink:href="#linear-gradient"/>
        <linearGradient id="linear-gradient-7" x1="230" y1="-2.71" x2="230" y2="473.51" xlink:href="#linear-gradient"/>
        <linearGradient id="linear-gradient-8" x1="341.15" y1="-2.71" x2="341.15" y2="473.51"
                        xlink:href="#linear-gradient"/>
    </defs>
    <g id="Layer_1-2">
        <path class="cls-3"
              d="m252.34,214.45h-2.28c-1.33,0-2.82.06-4.46.19-1.03.08-1.75.13-2.15.13-1.41,0-2.56-.33-3.45-.98-.89-.65-1.33-1.51-1.33-2.56,0-.74.19-1.31.58-1.72.39-.41,1.03-.74,1.91-1,.84-.21,1.41-.55,1.71-1.03.29-.47.53-1.4.7-2.77.17-1.58.32-4.66.46-9.24.14-4.58.21-9.12.21-13.64,0-1.77-.14-2.95-.41-3.54-.27-.59-.92-1.06-1.93-1.42-1.46-.55-2.18-1.49-2.18-2.82,0-1.03.5-1.84,1.5-2.42,1-.58,2.4-.87,4.19-.87.59,0,1.29.01,2.09.03,1.77.06,3.06.09,3.86.09,3.02,0,6.42-.09,10.22-.28.8-.04,1.8-.06,3.01-.06,4.83,0,8.65.55,11.45,1.65,4.18,1.65,7.32,4.41,9.43,8.29,1.88,3.42,2.82,7.49,2.82,12.21,0,2.38-.35,4.77-1.04,7.17-.7,2.39-1.64,4.47-2.82,6.22-2.45,3.54-5.82,6.03-10.12,7.47-2.53.84-5.23,1.27-8.1,1.27l-3.83-.13-3.29-.1c-2.55-.08-4.8-.13-6.74-.13Zm6.64-34.3v24.49c0,1.33.28,2.27.85,2.83.57.56,1.52.84,2.85.84,6.16,0,9.24-4.68,9.24-14.05,0-5.17-.72-9.18-2.15-12.02-1.58-3.14-4.26-4.71-8.04-4.71-1.01,0-1.72.2-2.14.6-.41.4-.62,1.08-.62,2.02Z"/>
        <path class="cls-3"
              d="m335.77,192.58l5.98,12.81c.57,1.18,1.04,1.96,1.42,2.33.38.37.96.62,1.74.74,1.52.23,2.28,1,2.28,2.31,0,1.54-.93,2.65-2.78,3.32-1.86.67-4.89,1.01-9.11,1.01-4.77,0-8.3-.2-10.6-.6-1.06-.19-1.89-.57-2.52-1.16-.62-.58-.93-1.28-.93-2.1,0-.63.16-1.12.49-1.47.33-.35.93-.67,1.82-.96.99-.34,1.49-.91,1.49-1.71,0-1.41-.85-2.25-2.56-2.5-1.84-.25-4.42-.38-7.75-.38-2.81,0-4.48.17-5.03.51-.34.21-.63.59-.89,1.14-.25.55-.38,1.08-.38,1.58,0,.46.09.77.27.9.18.14.76.36,1.76.68,1.29.38,1.93,1.14,1.93,2.28,0,2.51-3.01,3.77-9.02,3.77-3.42,0-5.93-.23-7.53-.7-1.48-.44-2.21-1.41-2.21-2.91,0-.65.16-1.16.49-1.52.33-.36.91-.69,1.76-.98,1.37-.49,2.41-1.17,3.12-2.04.71-.88,1.71-2.75,3.02-5.62l4.46-9.78c1.65-3.59,2.75-6.27,3.31-8.05.56-1.78.85-3.53.87-5.24.02-1.81.13-3.07.33-3.78.2-.71.65-1.4,1.34-2.07,1.46-1.48,3.31-2.21,5.57-2.21,2.13,0,4.17.83,6.11,2.5,2.7,2.28,6.62,8.91,11.77,19.9Zm-22.02,3.99h6.2c1.14,0,1.71-.25,1.71-.76,0-.7-.79-2.4-2.37-5.13-.72-1.24-1.27-2.08-1.65-2.5-.38-.42-.78-.63-1.2-.63-.76,0-1.39.71-1.9,2.12-.08.19-.39.94-.92,2.25-.89,2.15-1.33,3.44-1.33,3.86,0,.53.48.79,1.46.79Z"/>
        <path class="cls-3"
              d="m379.12,182.49l-.92-2.21c-.57-1.29-1.28-2.14-2.12-2.56-1.52-.8-2.28-1.81-2.28-3.04,0-2.7,4.05-4.05,12.15-4.05,4.05,0,7.13.33,9.24.98.72.23,1.29.6,1.72,1.11.43.51.65,1.07.65,1.68,0,.53-.1.93-.3,1.2-.2.27-.75.81-1.66,1.61-.53.44-.79.91-.79,1.39,0,.74.4,1.96,1.2,3.67l1.8,3.86c.82,1.75,1.41,2.86,1.76,3.34.35.47.74.71,1.19.71.49,0,.9-.27,1.25-.82s.8-1.62,1.34-3.23l1.52-4.43c.42-1.27.63-2.21.63-2.85,0-.84-.44-1.4-1.33-1.68-1.77-.57-2.66-1.58-2.66-3.04,0-1.27.68-2.17,2.06-2.72,1.37-.55,3.63-.82,6.77-.82,2.05,0,3.64.23,4.78.7,1.58.63,2.37,1.65,2.37,3.04,0,.61-.14,1.14-.43,1.58-.28.44-.86,1.03-1.72,1.77-.57.49-1.01,1-1.31,1.55s-.78,1.68-1.41,3.39l-5.54,14.71c-2.76,6.86-4.43,10.94-5,12.25-.57,1.31-1.16,2.48-1.77,3.51-.46.76-.98,1.29-1.55,1.6s-1.33.46-2.28.46c-1.27,0-2.28-.27-3.05-.82-.77-.55-1.42-1.46-1.95-2.72l-6.26-14.87c-.34-.82-.59-1.34-.76-1.55s-.4-.32-.7-.32c-.44,0-.82.26-1.14.79s-.92,1.89-1.8,4.08l-4.3,10.69c-.8,1.94-1.57,3.22-2.29,3.84-.73.62-1.83.93-3.31.93-1.33,0-2.38-.32-3.15-.95s-1.47-1.75-2.1-3.35l-11.64-29.77c-.49-1.22-.82-1.95-1-2.17-.18-.22-.74-.59-1.69-1.09-1.08-.55-1.61-1.48-1.61-2.78,0-2.97,3.69-4.46,11.07-4.46,3.78,0,6.51.26,8.19.79,1.62.53,2.44,1.57,2.44,3.13,0,.49-.04.84-.13,1.06-.08.22-.39.71-.92,1.47-.25.4-.38.9-.38,1.49,0,1.05.71,3.25,2.12,6.58l1.3,3.04c.55,1.27.91,2.03,1.09,2.29.18.26.44.4.77.4.82,0,1.67-1.17,2.53-3.51l1.3-3.61c.11-.25.16-.45.16-.6,0-.17-.05-.39-.16-.66Z"/>
        <path class="cls-3"
              d="m440.94,172.78l15.76,13.8c1.48,1.29,2.54,1.93,3.2,1.93,1.1,0,1.64-1.17,1.64-3.51,0-2.66-.16-4.47-.47-5.44s-.98-1.7-1.99-2.18c-.82-.4-1.4-.83-1.74-1.28-.34-.45-.51-1.04-.51-1.76,0-1.77,1.21-2.91,3.64-3.42.99-.21,2.72-.32,5.19-.32,3.19,0,5.39.19,6.61.57,1.94.59,2.91,1.71,2.91,3.35,0,1.37-.79,2.4-2.37,3.1-.63.27-1.07.52-1.3.73-.23.21-.43.53-.6.95-.57,1.39-.87,4.03-.89,7.91v10.31c0,1.58,0,3.74.03,6.49.02,3.71-.2,6.39-.66,8.04-.57,2.05-1.6,3.07-3.1,3.07-.65,0-1.22-.14-1.69-.41s-1.26-.91-2.36-1.9l-18.76-16.8c-1.31-1.18-2.39-1.77-3.26-1.77-1.29,0-1.93,1.78-1.93,5.35,0,2.93.16,4.94.49,6.01.33,1.08,1,1.87,2.01,2.37,1.41.7,2.12,1.6,2.12,2.72,0,2.93-3.15,4.4-9.46,4.4-2.85,0-5.06-.37-6.63-1.12s-2.36-1.81-2.36-3.18c0-.72.15-1.25.44-1.61.29-.36.96-.84,1.99-1.46.99-.59,1.59-1.63,1.8-3.13.36-2.72.54-6.63.54-11.74,0-5.44-.32-9.41-.95-11.9-.23-.91-.53-1.58-.89-2.02-.36-.44-.95-.86-1.77-1.27-.95-.46-1.61-.92-1.98-1.36s-.55-.98-.55-1.61c0-2.02,1.74-3.3,5.22-3.83,1.18-.17,3.25-.25,6.2-.25,1.69,0,2.92.13,3.69.4.77.26,1.68.86,2.74,1.79Z"/>
        <path class="cls-3"
              d="m497.07,214.41l-4.24.03c-2.97.04-5.15.11-6.52.19-1.22.1-2.1.16-2.63.16-1.29,0-2.31-.33-3.07-.98-.74-.65-1.11-1.43-1.11-2.34,0-.59.14-1.05.41-1.39.27-.34.94-.86,1.99-1.58.61-.42,1.03-1.08,1.27-1.98s.49-2.82.76-5.77c.4-4.6.6-10.26.6-16.99,0-2.47-.16-4.11-.49-4.92s-1.09-1.48-2.29-2.01c-1.39-.59-2.09-1.46-2.09-2.59,0-.93.42-1.69,1.25-2.28.83-.59,1.9-.89,3.21-.89.72,0,1.63.03,2.75.1,1.86.08,3.86.13,6.01.13,1.58,0,4.69-.06,9.33-.19,1.46-.04,2.77-.06,3.96-.06,2.8,0,5.07.23,6.79.68,1.72.45,3.21,1.22,4.48,2.29,2.07,1.75,3.1,4.09,3.1,7.02,0,1.46-.31,2.87-.92,4.26-.61,1.38-1.43,2.48-2.47,3.31-.74.59-1.11,1.13-1.11,1.61,0,.53.44.97,1.33,1.33,1.73.7,3.3,1.87,4.71,3.51,1.46,1.71,2.18,3.85,2.18,6.42,0,3.04-1.11,5.81-3.32,8.32-2.93,3.31-7.27,4.97-13,4.97-.78,0-2.7-.05-5.76-.16-2.79-.11-4.49-.17-5.13-.19Zm2.18-34.33v6.52c0,1.03.13,1.76.4,2.18.26.42.72.63,1.38.63,1.56,0,2.71-.48,3.45-1.44.74-.96,1.11-2.46,1.11-4.51s-.38-3.52-1.14-4.6c-.76-1.09-1.83-1.63-3.23-1.63-.74,0-1.25.21-1.53.62-.29.41-.43,1.15-.43,2.23Zm0,18.23v3.01c0,2.76.2,4.6.6,5.51.4.91,1.21,1.36,2.44,1.36,3.21,0,4.81-1.88,4.81-5.63,0-4.68-1.79-7.02-5.38-7.02-.93,0-1.57.2-1.93.6-.36.4-.54,1.13-.54,2.18Z"/>
        <path class="cls-3"
              d="m550.98,196.28c-.8,0-1.31.24-1.54.73-.22.49-.33,1.61-.33,3.39,0,2.68.17,4.77.51,6.26.11.42.26.75.47.98.21.23.61.52,1.2.85,1.27.7,1.9,1.61,1.9,2.75,0,1.39-.88,2.38-2.64,2.96-1.76.58-4.74.87-8.94.87-7.8,0-11.71-1.48-11.71-4.43,0-.51.12-.91.35-1.22.23-.31.76-.73,1.58-1.28.93-.61,1.55-1.33,1.88-2.17.33-.83.55-2.27.68-4.32.11-1.5.16-6.87.16-16.1,0-2.93-.15-4.93-.44-5.98-.29-1.05-.93-1.82-1.9-2.31-.93-.44-1.55-.85-1.87-1.22-.32-.37-.47-.85-.47-1.44,0-.78.3-1.46.9-2.04.6-.58,1.44-1.01,2.52-1.28.91-.23,2.15-.35,3.73-.35.7,0,2.44.11,5.22.32.53.04,1.36.06,2.5.06,1.9,0,4.43-.13,7.59-.38,2-.15,3.41-.22,4.21-.22,4.51,0,8.25,1.09,11.2,3.26,2.66,1.96,3.99,4.68,3.99,8.16,0,1.94-.46,3.71-1.39,5.3-.93,1.59-2.2,2.79-3.83,3.59-.68.34-1.01.74-1.01,1.2,0,.61.52,1.11,1.55,1.49,2.21.8,3.84,2.01,4.87,3.64,1.03,1.62,1.77,4.11,2.21,7.47.19,1.39.46,2.29.82,2.71.36.41,1.19.81,2.5,1.19.4.13.74.4,1.01.81.27.41.41.87.41,1.38,0,.65-.25,1.31-.76,1.98-.51.66-1.16,1.19-1.96,1.57-1.77.82-4.2,1.23-7.28,1.23-4.11,0-7.06-1.09-8.83-3.26-.8-.97-1.48-2.19-2.04-3.67-.56-1.48-1.22-3.78-1.98-6.9-.49-2-1.1-3.42-1.85-4.24-.75-.82-1.82-1.27-3.21-1.33Zm-1.84-16.14l-.35,7.37v.28c0,.76.11,1.27.33,1.52.22.25.67.38,1.34.38,1.86,0,3.21-.48,4.05-1.44.84-.96,1.27-2.49,1.27-4.6,0-4.07-1.44-6.11-4.33-6.11-.82,0-1.4.19-1.74.57-.34.38-.53,1.05-.57,2.02Z"/>
        <path class="cls-3"
              d="m589.74,171.26h16.26c3.29,0,5.69-.07,7.2-.21s2.98-.42,4.41-.84c.44-.13.79-.19,1.04-.19,1.1,0,2.07.59,2.91,1.77,1.39,1.92,2.09,4.24,2.09,6.96,0,1.37-.29,2.45-.87,3.24-.58.79-1.38,1.19-2.39,1.19-.7,0-1.24-.14-1.63-.43-.39-.28-.91-.92-1.57-1.91-.93-1.41-2.1-2.36-3.53-2.83s-3.76-.71-7.01-.71c-2.43,0-3.9.43-4.43,1.3-.27.46-.44,1.09-.49,1.87-.05.78-.08,2.77-.08,5.98,0,1.27.21,2.05.63,2.36.42.31,1.53.46,3.32.46.89,0,1.53-.18,1.93-.55.4-.37.65-1.03.76-1.98.15-1.22.3-2.06.46-2.52s.45-.85.87-1.19c.44-.38.96-.57,1.55-.57.86,0,1.6.41,2.21,1.23.44.61.82,1.69,1.12,3.24.31,1.55.46,3.17.46,4.86,0,3.33-.52,6.06-1.55,8.19-.57,1.16-1.43,1.74-2.59,1.74-.72,0-1.21-.18-1.49-.55-.27-.37-.49-1.13-.63-2.29-.32-2.38-1.71-3.58-4.18-3.58-.95,0-1.6.3-1.95.9-.35.6-.52,1.71-.52,3.34,0,.99.07,2.27.21,3.84.14,1.57.28,2.61.43,3.12.17.63.69,1.07,1.57,1.31.88.24,2.34.36,4.38.36,3.16,0,5.55-.41,7.15-1.22,1.6-.81,2.91-2.28,3.92-4.41.59-1.22,1.12-2.05,1.6-2.47s1.09-.63,1.85-.63c.89,0,1.62.39,2.2,1.15.58.77.87,1.74.87,2.9,0,1.27-.33,2.85-.98,4.75-.65,1.9-1.46,3.59-2.4,5.06-.49.72-.89,1.2-1.2,1.44-.32.24-.72.36-1.2.36-.4,0-.98-.06-1.74-.19-1.35-.25-3.15-.41-5.41-.47h-26.83c-1.08,0-1.91-.24-2.5-.71-.59-.47-.89-1.14-.89-2.01,0-.61.13-1.05.38-1.33.25-.27.83-.62,1.74-1.04.63-.27,1.1-.61,1.41-1.01s.54-.99.71-1.77c.7-3.19,1.04-7.48,1.04-12.88,0-8.14-.51-13.28-1.52-15.41-.21-.42-.44-.72-.7-.89-.25-.17-.78-.37-1.58-.6-1.2-.36-1.8-1.16-1.8-2.4,0-.67.2-1.28.6-1.8s.93-.88,1.58-1.04c.82-.19,2.42-.28,4.78-.28Z"/>
        <path class="cls-3"
              d="m671.43,192.58l5.98,12.81c.57,1.18,1.04,1.96,1.42,2.33.38.37.96.62,1.74.74,1.52.23,2.28,1,2.28,2.31,0,1.54-.93,2.65-2.78,3.32-1.86.67-4.89,1.01-9.11,1.01-4.77,0-8.3-.2-10.6-.6-1.06-.19-1.89-.57-2.52-1.16-.62-.58-.93-1.28-.93-2.1,0-.63.16-1.12.49-1.47s.93-.67,1.82-.96c.99-.34,1.49-.91,1.49-1.71,0-1.41-.85-2.25-2.56-2.5-1.83-.25-4.42-.38-7.75-.38-2.81,0-4.48.17-5.03.51-.34.21-.63.59-.89,1.14-.25.55-.38,1.08-.38,1.58,0,.46.09.77.27.9.18.14.76.36,1.76.68,1.29.38,1.93,1.14,1.93,2.28,0,2.51-3.01,3.77-9.02,3.77-3.42,0-5.93-.23-7.53-.7-1.48-.44-2.21-1.41-2.21-2.91,0-.65.16-1.16.49-1.52.33-.36.91-.69,1.76-.98,1.37-.49,2.41-1.17,3.12-2.04.71-.88,1.71-2.75,3.02-5.62l4.46-9.78c1.65-3.59,2.75-6.27,3.31-8.05.56-1.78.85-3.53.87-5.24.02-1.81.13-3.07.33-3.78.2-.71.65-1.4,1.34-2.07,1.46-1.48,3.31-2.21,5.57-2.21,2.13,0,4.17.83,6.11,2.5,2.7,2.28,6.62,8.91,11.77,19.9Zm-22.02,3.99h6.2c1.14,0,1.71-.25,1.71-.76,0-.7-.79-2.4-2.37-5.13-.72-1.24-1.27-2.08-1.64-2.5-.38-.42-.78-.63-1.2-.63-.76,0-1.39.71-1.9,2.12-.08.19-.39.94-.92,2.25-.89,2.15-1.33,3.44-1.33,3.86,0,.53.49.79,1.46.79Z"/>
        <path class="cls-3"
              d="m723.29,179.89l-3.38,3.26c-1.25,1.18-1.87,2.26-1.87,3.23,0,.53.14,1.06.43,1.58.29.53.82,1.25,1.6,2.15l11.83,13.7c1.05,1.22,1.78,2,2.18,2.33.4.33,1,.67,1.8,1.03,1.14.49,1.95,1.02,2.42,1.61.47.59.71,1.36.71,2.31,0,2.24-1.59,3.35-4.78,3.35h-11.99c-.82,0-1.47-.18-1.95-.54-.47-.36-1.23-1.24-2.26-2.66-1.65-2.26-3.82-4.85-6.52-7.78-1.18-1.27-2.01-2.09-2.48-2.48s-.91-.59-1.31-.59c-1.22,0-1.84,1.15-1.84,3.45,0,1.88.4,3.17,1.2,3.89.15.11.48.34,1.01.7,1.14.74,1.71,1.66,1.71,2.75,0,1.39-.93,2.39-2.78,2.99-1.86.6-4.98.9-9.37.9-3.9,0-6.75-.23-8.54-.7-.76-.21-1.38-.6-1.85-1.15-.47-.56-.71-1.19-.71-1.88,0-1.12.63-2.08,1.9-2.88.57-.38.98-.8,1.22-1.25.24-.45.47-1.22.68-2.29.42-2.38.63-6.05.63-11.01,0-5.91-.22-10.09-.66-12.56-.17-1.01-.4-1.74-.7-2.18-.3-.44-.81-.88-1.55-1.3-1.18-.67-1.77-1.61-1.77-2.82,0-1.01.37-1.82,1.11-2.44.74-.61,1.92-1.08,3.54-1.39,2.15-.42,4.85-.63,8.1-.63s5.77.32,7.37.95c1.43.59,2.15,1.65,2.15,3.16,0,.63-.11,1.12-.33,1.47-.22.35-.8.89-1.72,1.63-.34.3-.65,1-.93,2.12-.29,1.12-.43,2.21-.43,3.29,0,1.77.4,2.66,1.2,2.66.49,0,.95-.21,1.41-.63.45-.42,1.37-1.48,2.74-3.16,1.58-1.96,2.37-3.3,2.37-4.02,0-.38-.2-.95-.6-1.71-.27-.53-.41-1.01-.41-1.46,0-1.56.84-2.66,2.53-3.31,1.69-.64,4.57-.96,8.64-.96,3.25,0,5.65.21,7.21.63,1.92.53,2.88,1.65,2.88,3.35,0,.68-.2,1.3-.6,1.88-.4.58-.9.96-1.49,1.12-.44.15-1.47.23-3.07.25-1.12.02-1.96.15-2.52.4-.56.24-1.28.79-2.17,1.63Z"/>
        <path class="cls-3"
              d="m749.45,171.26h16.26c3.29,0,5.69-.07,7.2-.21s2.98-.42,4.41-.84c.44-.13.79-.19,1.04-.19,1.1,0,2.07.59,2.91,1.77,1.39,1.92,2.09,4.24,2.09,6.96,0,1.37-.29,2.45-.87,3.24-.58.79-1.38,1.19-2.39,1.19-.7,0-1.24-.14-1.63-.43-.39-.28-.91-.92-1.57-1.91-.93-1.41-2.1-2.36-3.53-2.83s-3.76-.71-7.01-.71c-2.43,0-3.9.43-4.43,1.3-.27.46-.44,1.09-.49,1.87-.05.78-.08,2.77-.08,5.98,0,1.27.21,2.05.63,2.36.42.31,1.53.46,3.32.46.89,0,1.53-.18,1.93-.55.4-.37.65-1.03.76-1.98.15-1.22.3-2.06.46-2.52s.45-.85.87-1.19c.44-.38.96-.57,1.55-.57.86,0,1.6.41,2.21,1.23.44.61.82,1.69,1.12,3.24.31,1.55.46,3.17.46,4.86,0,3.33-.52,6.06-1.55,8.19-.57,1.16-1.43,1.74-2.59,1.74-.72,0-1.21-.18-1.49-.55-.27-.37-.49-1.13-.63-2.29-.32-2.38-1.71-3.58-4.18-3.58-.95,0-1.6.3-1.95.9-.35.6-.52,1.71-.52,3.34,0,.99.07,2.27.21,3.84.14,1.57.28,2.61.43,3.12.17.63.69,1.07,1.57,1.31.88.24,2.34.36,4.38.36,3.16,0,5.55-.41,7.15-1.22,1.6-.81,2.91-2.28,3.92-4.41.59-1.22,1.12-2.05,1.6-2.47s1.09-.63,1.85-.63c.89,0,1.62.39,2.2,1.15.58.77.87,1.74.87,2.9,0,1.27-.33,2.85-.98,4.75-.65,1.9-1.46,3.59-2.4,5.06-.49.72-.89,1.2-1.2,1.44-.32.24-.72.36-1.2.36-.4,0-.98-.06-1.74-.19-1.35-.25-3.15-.41-5.41-.47h-26.83c-1.08,0-1.91-.24-2.5-.71-.59-.47-.89-1.14-.89-2.01,0-.61.13-1.05.38-1.33.25-.27.83-.62,1.74-1.04.63-.27,1.1-.61,1.41-1.01s.54-.99.71-1.77c.7-3.19,1.04-7.48,1.04-12.88,0-8.14-.51-13.28-1.52-15.41-.21-.42-.44-.72-.7-.89-.25-.17-.78-.37-1.58-.6-1.2-.36-1.8-1.16-1.8-2.4,0-.67.2-1.28.6-1.8s.93-.88,1.58-1.04c.82-.19,2.42-.28,4.78-.28Z"/>
        <path class="cls-3"
              d="m810.96,196.28c-.8,0-1.31.24-1.54.73-.22.49-.33,1.61-.33,3.39,0,2.68.17,4.77.51,6.26.11.42.26.75.47.98.21.23.61.52,1.2.85,1.27.7,1.9,1.61,1.9,2.75,0,1.39-.88,2.38-2.64,2.96-1.76.58-4.74.87-8.94.87-7.8,0-11.71-1.48-11.71-4.43,0-.51.12-.91.35-1.22.23-.31.76-.73,1.58-1.28.93-.61,1.55-1.33,1.88-2.17.33-.83.55-2.27.68-4.32.11-1.5.16-6.87.16-16.1,0-2.93-.15-4.93-.44-5.98-.29-1.05-.93-1.82-1.9-2.31-.93-.44-1.55-.85-1.87-1.22-.32-.37-.47-.85-.47-1.44,0-.78.3-1.46.9-2.04.6-.58,1.44-1.01,2.52-1.28.91-.23,2.15-.35,3.73-.35.7,0,2.44.11,5.22.32.53.04,1.36.06,2.5.06,1.9,0,4.43-.13,7.59-.38,2-.15,3.41-.22,4.21-.22,4.51,0,8.25,1.09,11.2,3.26,2.66,1.96,3.99,4.68,3.99,8.16,0,1.94-.46,3.71-1.39,5.3-.93,1.59-2.2,2.79-3.83,3.59-.68.34-1.01.74-1.01,1.2,0,.61.52,1.11,1.55,1.49,2.21.8,3.84,2.01,4.87,3.64,1.03,1.62,1.77,4.11,2.21,7.47.19,1.39.46,2.29.82,2.71.36.41,1.19.81,2.5,1.19.4.13.74.4,1.01.81.27.41.41.87.41,1.38,0,.65-.25,1.31-.76,1.98-.51.66-1.16,1.19-1.96,1.57-1.77.82-4.2,1.23-7.28,1.23-4.11,0-7.06-1.09-8.83-3.26-.8-.97-1.48-2.19-2.04-3.67-.56-1.48-1.22-3.78-1.98-6.9-.49-2-1.1-3.42-1.85-4.24-.75-.82-1.82-1.27-3.21-1.33Zm-1.84-16.14l-.35,7.37v.28c0,.76.11,1.27.33,1.52.22.25.67.38,1.34.38,1.86,0,3.21-.48,4.05-1.44.84-.96,1.27-2.49,1.27-4.6,0-4.07-1.44-6.11-4.33-6.11-.82,0-1.4.19-1.74.57-.34.38-.53,1.05-.57,2.02Z"/>
        <path class="cls-2"
              d="m268.54,251.28c2.38,0,4.67.52,6.88,1.56,1.04.49,1.77.73,2.17.73.29,0,.76-.07,1.42-.22.21-.05.45-.07.71-.07.85,0,1.59.39,2.22,1.17,1.56,1.89,2.34,4.23,2.34,7.03,0,1.97-.68,3.41-2.03,4.32-.73.49-1.55.73-2.47.73-.83,0-1.51-.18-2.03-.54-.52-.36-1.03-.99-1.51-1.9-.7-1.29-1.27-2.21-1.71-2.77s-.98-1.07-1.61-1.53c-1.58-1.11-3.23-1.66-4.96-1.66s-3.01.61-3.99,1.82c-.98,1.21-1.48,2.84-1.48,4.87,0,2.8.71,5.36,2.12,7.69,1.92,3.11,4.67,4.66,8.25,4.66,1.32,0,2.62-.22,3.92-.66s2.3-1.01,3.02-1.71c.62-.59,1.12-.88,1.51-.88.57,0,1.06.26,1.46.79.41.53.61,1.17.61,1.92,0,.94-.29,2-.85,3.17-.57,1.17-1.25,2.09-2.05,2.76-.34.28-1.05.52-2.12.73-.62.11-1.44.42-2.47.9-2.41,1.16-4.92,1.73-7.52,1.73s-5.43-.61-8.13-1.83c-3.14-1.42-5.62-3.59-7.45-6.52-1.79-2.85-2.69-5.83-2.69-8.94,0-3.61,1.12-6.91,3.37-9.89,1.95-2.59,4.5-4.57,7.64-5.93,2.39-1.04,4.86-1.56,7.4-1.56Z"/>
        <path class="cls-2"
              d="m302.38,262.63v11.21c0,2.52.22,4.15.66,4.88.54.86,1.67,1.29,3.39,1.29,1.86,0,3.32-.41,4.39-1.22s1.82-2.08,2.25-3.81c.24-1.06.8-1.59,1.66-1.59s1.57.39,2.11,1.16c.54.77.82,1.78.82,3.02,0,2.02-.75,4.18-2.25,6.47-.47.73-.89,1.23-1.25,1.5-.36.27-.79.4-1.29.4l-5.42-.66h-17.07c-1.12,0-1.91-.13-2.37-.39-.67-.37-1-.94-1-1.68,0-.46.11-.79.33-1.01s.75-.53,1.6-.94c.93-.44,1.52-1.06,1.78-1.86.21-.67.32-2.61.32-5.84,0-1.5-.04-3.65-.12-6.47-.08-2.7-.13-4.74-.15-6.1,0-1.3-.1-2.19-.31-2.67-.2-.48-.63-.83-1.28-1.04-1.07-.37-1.76-.68-2.05-.9-.52-.41-.78-.87-.78-1.39,0-1.19.98-2.09,2.95-2.71,1.68-.54,3.92-.81,6.74-.81,3.16,0,5.52.16,7.08.49,2.02.44,3.03,1.32,3.03,2.64,0,.54-.13.94-.4,1.2-.27.26-.92.61-1.97,1.05-.62.28-1.01.75-1.17,1.42-.16.67-.24,2.12-.24,4.37Z"/>
        <path class="cls-2"
              d="m324.12,251.96h12.55c2.54,0,4.39-.05,5.55-.16,1.16-.11,2.3-.32,3.41-.65.34-.1.61-.15.81-.15.85,0,1.59.46,2.25,1.37,1.07,1.48,1.61,3.27,1.61,5.37,0,1.06-.22,1.89-.67,2.5-.45.61-1.06.92-1.84.92-.54,0-.96-.11-1.26-.33-.3-.22-.7-.71-1.21-1.48-.72-1.09-1.62-1.82-2.72-2.19s-2.9-.55-5.41-.55c-1.87,0-3.01.33-3.42,1-.21.36-.34.84-.38,1.44-.04.6-.06,2.14-.06,4.61,0,.98.16,1.58.49,1.82.33.24,1.18.35,2.56.35.68,0,1.18-.14,1.49-.43.31-.28.5-.79.59-1.53.11-.94.23-1.59.35-1.94.12-.35.35-.65.67-.92.34-.29.74-.44,1.2-.44.67,0,1.24.32,1.71.95.34.47.63,1.31.87,2.5.24,1.2.35,2.45.35,3.75,0,2.57-.4,4.68-1.2,6.32-.44.9-1.11,1.34-2,1.34-.55,0-.94-.14-1.15-.43-.21-.28-.37-.87-.49-1.77-.24-1.84-1.32-2.76-3.22-2.76-.73,0-1.23.23-1.5.7s-.4,1.32-.4,2.58c0,.77.05,1.75.16,2.97.11,1.21.22,2.01.33,2.41.13.49.53.83,1.21,1.01.68.19,1.8.28,3.38.28,2.44,0,4.28-.31,5.52-.94,1.24-.63,2.25-1.76,3.03-3.41.46-.94.87-1.58,1.23-1.9.37-.33.84-.49,1.43-.49.68,0,1.25.3,1.7.89.45.59.67,1.34.67,2.23,0,.98-.25,2.2-.76,3.66-.5,1.46-1.12,2.77-1.86,3.91-.37.55-.68.92-.93,1.11s-.55.28-.93.28c-.31,0-.76-.05-1.34-.15-1.04-.2-2.43-.32-4.17-.37h-20.7c-.83,0-1.47-.18-1.93-.55-.46-.37-.68-.88-.68-1.55,0-.47.1-.81.29-1.03s.64-.48,1.34-.81c.49-.21.85-.47,1.09-.78.24-.31.42-.76.55-1.37.54-2.46.81-5.77.81-9.94,0-6.28-.39-10.25-1.17-11.89-.16-.33-.34-.55-.54-.68-.2-.13-.6-.28-1.22-.46-.93-.28-1.39-.9-1.39-1.86,0-.52.15-.98.46-1.39.31-.41.72-.68,1.22-.81.63-.15,1.86-.22,3.69-.22Z"/>
        <path class="cls-2"
              d="m385.91,268.42l4.61,9.89c.44.91.81,1.51,1.1,1.79.29.29.74.48,1.34.57,1.17.18,1.76.77,1.76,1.78,0,1.19-.72,2.04-2.15,2.56-1.43.52-3.78.78-7.03.78-3.68,0-6.4-.16-8.18-.46-.81-.15-1.46-.44-1.94-.89-.48-.45-.72-.99-.72-1.62,0-.49.13-.87.38-1.14.25-.27.72-.52,1.4-.74.76-.26,1.15-.7,1.15-1.32,0-1.09-.66-1.73-1.98-1.93-1.42-.2-3.41-.29-5.98-.29-2.17,0-3.46.13-3.88.39-.26.16-.49.46-.68.88s-.29.83-.29,1.22c0,.36.07.59.21.7.14.11.59.28,1.35.53.99.29,1.49.88,1.49,1.76,0,1.94-2.32,2.91-6.96,2.91-2.64,0-4.57-.18-5.81-.54-1.14-.34-1.71-1.09-1.71-2.25,0-.5.13-.9.38-1.17.25-.28.7-.53,1.35-.76,1.06-.37,1.86-.9,2.4-1.58.54-.67,1.32-2.12,2.33-4.33l3.44-7.54c1.27-2.77,2.12-4.84,2.55-6.21.43-1.38.65-2.72.67-4.04.02-1.4.1-2.37.26-2.92.15-.54.5-1.08,1.04-1.6,1.12-1.14,2.56-1.71,4.3-1.71,1.64,0,3.21.64,4.71,1.93,2.08,1.76,5.11,6.88,9.08,15.36Zm-16.99,3.08h4.79c.88,0,1.32-.2,1.32-.59,0-.54-.61-1.86-1.83-3.96-.55-.96-.98-1.6-1.27-1.93-.29-.33-.6-.49-.93-.49-.59,0-1.07.55-1.46,1.64-.07.15-.3.72-.71,1.73-.68,1.66-1.03,2.65-1.03,2.98,0,.41.37.61,1.12.61Z"/>
        <path class="cls-2"
              d="m409.87,253.13l12.16,10.64c1.14.99,1.96,1.49,2.47,1.49.85,0,1.27-.9,1.27-2.71,0-2.05-.12-3.45-.37-4.2-.24-.75-.76-1.31-1.54-1.68-.63-.31-1.08-.64-1.34-.99-.26-.35-.39-.8-.39-1.35,0-1.37.94-2.25,2.81-2.64.76-.16,2.1-.24,4-.24,2.46,0,4.16.15,5.1.44,1.5.46,2.25,1.32,2.25,2.59,0,1.06-.61,1.86-1.83,2.39-.49.21-.82.4-1,.56-.18.16-.33.41-.46.73-.44,1.07-.67,3.11-.68,6.1v7.96c0,1.22,0,2.89.02,5,.02,2.86-.16,4.93-.51,6.2-.44,1.58-1.24,2.37-2.39,2.37-.5,0-.94-.11-1.31-.32-.37-.21-.97-.7-1.82-1.46l-14.48-12.96c-1.01-.91-1.85-1.37-2.51-1.37-.99,0-1.49,1.38-1.49,4.13,0,2.26.13,3.81.38,4.64.25.83.77,1.44,1.55,1.83,1.09.54,1.64,1.24,1.64,2.1,0,2.26-2.43,3.39-7.3,3.39-2.2,0-3.9-.29-5.11-.87-1.21-.58-1.82-1.4-1.82-2.45,0-.55.11-.97.34-1.25.23-.28.74-.65,1.54-1.12.76-.46,1.23-1.26,1.39-2.42.28-2.1.42-5.12.42-9.06,0-4.2-.24-7.26-.73-9.18-.18-.7-.41-1.22-.68-1.56-.28-.34-.73-.67-1.37-.98-.73-.36-1.24-.71-1.53-1.05-.29-.34-.43-.76-.43-1.25,0-1.56,1.34-2.55,4.03-2.95.91-.13,2.51-.2,4.79-.2,1.3,0,2.25.1,2.84.31.59.2,1.3.66,2.11,1.38Z"/>
        <path class="cls-2"
              d="m449.15,251.45c1.86,0,3.6.16,5.25.49,2.21.44,3.32,1.38,3.32,2.81,0,.47-.11.83-.33,1.06-.22.24-.78.58-1.67,1.04-.75.37-1.24,1.2-1.48,2.47-.24,1.27-.35,3.74-.35,7.42,0,6.22.15,10.07.46,11.55.11.47.29.83.52,1.09.24.25.65.53,1.23.82,1.07.49,1.61,1.2,1.61,2.12,0,1.3-.99,2.2-2.98,2.69-2.15.52-4.78.78-7.89.78-5.31,0-7.96-1.01-7.96-3.03,0-.73.52-1.42,1.56-2.05.8-.49,1.27-1.16,1.42-2,.31-1.86.46-5.79.46-11.82,0-4.17-.21-6.84-.63-8.01-.23-.67-.77-1.27-1.64-1.81-.67-.44-1.12-.81-1.34-1.1-.23-.29-.34-.67-.34-1.12,0-.7.34-1.26,1.01-1.67.68-.42,1.87-.79,3.58-1.11,2.03-.41,4.09-.61,6.18-.61Z"/>
        <path class="cls-2"
              d="m473.56,253.13l12.16,10.64c1.14.99,1.96,1.49,2.47,1.49.85,0,1.27-.9,1.27-2.71,0-2.05-.12-3.45-.37-4.2-.24-.75-.76-1.31-1.54-1.68-.63-.31-1.08-.64-1.34-.99-.26-.35-.39-.8-.39-1.35,0-1.37.94-2.25,2.81-2.64.76-.16,2.1-.24,4-.24,2.46,0,4.16.15,5.1.44,1.5.46,2.25,1.32,2.25,2.59,0,1.06-.61,1.86-1.83,2.39-.49.21-.82.4-1,.56-.18.16-.33.41-.46.73-.44,1.07-.67,3.11-.68,6.1v7.96c0,1.22,0,2.89.02,5,.02,2.86-.16,4.93-.51,6.2-.44,1.58-1.24,2.37-2.39,2.37-.5,0-.94-.11-1.31-.32-.37-.21-.97-.7-1.82-1.46l-14.48-12.96c-1.01-.91-1.85-1.37-2.51-1.37-.99,0-1.49,1.38-1.49,4.13,0,2.26.13,3.81.38,4.64.25.83.77,1.44,1.55,1.83,1.09.54,1.64,1.24,1.64,2.1,0,2.26-2.43,3.39-7.3,3.39-2.2,0-3.9-.29-5.11-.87-1.21-.58-1.82-1.4-1.82-2.45,0-.55.11-.97.34-1.25.23-.28.74-.65,1.54-1.12.76-.46,1.23-1.26,1.39-2.42.28-2.1.42-5.12.42-9.06,0-4.2-.24-7.26-.73-9.18-.18-.7-.41-1.22-.68-1.56-.28-.34-.73-.67-1.37-.98-.73-.36-1.24-.71-1.53-1.05-.29-.34-.43-.76-.43-1.25,0-1.56,1.34-2.55,4.03-2.95.91-.13,2.51-.2,4.79-.2,1.3,0,2.25.1,2.84.31.59.2,1.3.66,2.11,1.38Z"/>
        <path class="cls-2"
              d="m520.57,251.28c2.13,0,4.14.3,6.03.9.85.28,1.42.42,1.73.42.33,0,1.01-.19,2.05-.56.34-.11.69-.17,1.05-.17.91,0,1.78.54,2.61,1.61,1.33,1.73,2,3.61,2,5.66,0,1.4-.35,2.53-1.06,3.39-.71.86-1.64,1.29-2.8,1.29-.94,0-1.87-.34-2.78-1.03-.28-.21-.95-.98-2.03-2.29-1.79-2.2-3.85-3.3-6.18-3.3-2.12,0-3.8.77-5.04,2.32-1.24,1.55-1.87,3.63-1.87,6.25,0,3.89.99,7.2,2.98,9.94.75.99,1.64,1.79,2.69,2.38,1.04.59,2.08.89,3.1.89.85,0,1.54-.28,2.09-.84.55-.56.82-1.28.82-2.16,0-.78-.23-1.33-.68-1.66-.18-.13-.35-.21-.5-.23-.16-.02-.62-.04-1.4-.04-.7,0-1.28-.22-1.75-.67-.46-.45-.7-1.01-.7-1.7,0-1.35.89-2.31,2.69-2.88,1.97-.62,4.24-.93,6.81-.93,2.75,0,5.06.29,6.93.85,1.77.55,2.66,1.55,2.66,3,0,.59-.2,1.09-.61,1.53-.41.43-.94.69-1.59.77-.57.08-.94.21-1.11.38-.17.17-.35.59-.52,1.26-.7,2.59-2.07,4.75-4.1,6.49-1.4,1.19-3.09,2.12-5.07,2.78-1.98.67-4.06,1-6.24,1-3.56,0-6.84-.82-9.81-2.47-3.06-1.68-5.39-4.02-6.98-7.03-1.33-2.51-2-5.22-2-8.13s.8-5.75,2.39-8.4c1.69-2.85,4.06-5.05,7.1-6.59,2.65-1.37,5.68-2.05,9.08-2.05Z"/>
        <path class="cls-2"
              d="m570.24,251.28c1.68,0,3.87.42,6.59,1.25.33.1.59.15.78.15.16,0,.65-.15,1.46-.44.26-.1.54-.15.83-.15,1.09,0,2.24.86,3.46,2.59,1.21,1.73,1.82,3.37,1.82,4.93,0,.91-.27,1.68-.82,2.31-.54.63-1.21.94-1.99.94-.65,0-1.18-.13-1.59-.39-.41-.26-1.3-1.03-2.69-2.32-1.95-1.82-3.87-2.73-5.76-2.73-.91,0-1.64.22-2.19.66-.54.44-.82,1.02-.82,1.73,0,1.42,1.25,2.48,3.74,3.2,3.37.99,5.53,1.72,6.47,2.17,4.15,2.02,6.23,4.99,6.23,8.91,0,3.47-1.42,6.3-4.25,8.5-2.9,2.25-6.68,3.37-11.35,3.37-2.08,0-4.28-.25-6.59-.75-2.31-.5-3.98-1.08-5-1.75-.78-.52-1.49-1.66-2.11-3.41-.63-1.75-.94-3.45-.94-5.11,0-.8.16-1.4.49-1.81.41-.52.92-.78,1.54-.78s1.21.32,1.78.95c.34.36,1.15,1.51,2.42,3.44.6.91,1.56,1.67,2.87,2.27,1.31.6,2.66.9,4.06.9,1.2,0,2.18-.22,2.93-.67.75-.45,1.12-1.02,1.12-1.72,0-.65-.29-1.21-.88-1.68-.59-.47-1.54-.91-2.86-1.32-2.33-.73-4.1-1.4-5.32-2.01s-2.36-1.38-3.42-2.31c-2.57-2.28-3.86-4.87-3.86-7.76,0-1.43.33-2.83,1-4.19.67-1.36,1.61-2.53,2.83-3.53,2.73-2.29,6.07-3.44,10.01-3.44Z"/>
        <path class="cls-2"
              d="m593.55,251.96h12.55c2.54,0,4.39-.05,5.55-.16,1.16-.11,2.3-.32,3.41-.65.34-.1.61-.15.81-.15.85,0,1.59.46,2.25,1.37,1.07,1.48,1.61,3.27,1.61,5.37,0,1.06-.22,1.89-.67,2.5-.45.61-1.06.92-1.84.92-.54,0-.96-.11-1.26-.33-.3-.22-.7-.71-1.21-1.48-.72-1.09-1.62-1.82-2.72-2.19-1.1-.37-2.9-.55-5.41-.55-1.87,0-3.01.33-3.42,1-.21.36-.34.84-.38,1.44-.04.6-.06,2.14-.06,4.61,0,.98.16,1.58.49,1.82.33.24,1.18.35,2.56.35.68,0,1.18-.14,1.49-.43.31-.28.5-.79.59-1.53.11-.94.23-1.59.35-1.94.12-.35.35-.65.67-.92.34-.29.74-.44,1.2-.44.67,0,1.24.32,1.71.95.34.47.63,1.31.87,2.5.24,1.2.35,2.45.35,3.75,0,2.57-.4,4.68-1.2,6.32-.44.9-1.11,1.34-2,1.34-.55,0-.94-.14-1.15-.43-.21-.28-.38-.87-.49-1.77-.24-1.84-1.32-2.76-3.22-2.76-.73,0-1.23.23-1.5.7-.27.46-.4,1.32-.4,2.58,0,.77.05,1.75.16,2.97.11,1.21.21,2.01.33,2.41.13.49.53.83,1.21,1.01.68.19,1.8.28,3.38.28,2.44,0,4.28-.31,5.52-.94,1.24-.63,2.25-1.76,3.03-3.41.46-.94.87-1.58,1.23-1.9.37-.33.84-.49,1.43-.49.68,0,1.25.3,1.7.89.45.59.67,1.34.67,2.23,0,.98-.25,2.2-.76,3.66-.5,1.46-1.12,2.77-1.86,3.91-.38.55-.68.92-.93,1.11s-.55.28-.93.28c-.31,0-.76-.05-1.34-.15-1.04-.2-2.43-.32-4.17-.37h-20.7c-.83,0-1.47-.18-1.93-.55-.46-.37-.68-.88-.68-1.55,0-.47.1-.81.29-1.03s.64-.48,1.34-.81c.49-.21.85-.47,1.09-.78.24-.31.42-.76.55-1.37.54-2.46.81-5.77.81-9.94,0-6.28-.39-10.25-1.17-11.89-.16-.33-.34-.55-.54-.68-.2-.13-.6-.28-1.22-.46-.93-.28-1.39-.9-1.39-1.86,0-.52.15-.98.46-1.39.31-.41.72-.68,1.22-.81.63-.15,1.86-.22,3.69-.22Z"/>
        <path class="cls-2"
              d="m639.76,271.27c-.62,0-1.01.19-1.18.56-.17.37-.26,1.25-.26,2.61,0,2.07.13,3.68.39,4.83.08.33.2.58.37.76.16.18.47.4.93.66.98.54,1.46,1.25,1.46,2.12,0,1.07-.68,1.83-2.04,2.28-1.36.45-3.66.67-6.9.67-6.02,0-9.03-1.14-9.03-3.42,0-.39.09-.7.27-.94.18-.24.59-.57,1.22-.99.72-.47,1.2-1.03,1.45-1.67.25-.64.43-1.75.53-3.33.08-1.16.12-5.3.12-12.43,0-2.26-.11-3.8-.34-4.61-.23-.81-.72-1.41-1.46-1.78-.72-.34-1.2-.65-1.44-.94-.24-.28-.37-.65-.37-1.11,0-.6.23-1.13.7-1.57.46-.45,1.11-.78,1.94-.99.7-.18,1.66-.27,2.88-.27.54,0,1.88.08,4.03.24.41.03,1.05.05,1.93.05,1.46,0,3.42-.1,5.86-.29,1.55-.11,2.63-.17,3.25-.17,3.48,0,6.36.84,8.64,2.51,2.05,1.51,3.08,3.61,3.08,6.3,0,1.5-.36,2.86-1.07,4.09-.72,1.23-1.7,2.15-2.95,2.77-.52.26-.78.57-.78.93,0,.47.4.85,1.2,1.15,1.71.62,2.96,1.55,3.76,2.81.8,1.25,1.37,3.17,1.71,5.76.15,1.07.36,1.77.63,2.09.28.32.92.62,1.93.92.31.1.57.3.78.62.21.32.32.67.32,1.06,0,.5-.2,1.01-.59,1.53s-.9.92-1.51,1.21c-1.37.63-3.24.95-5.62.95-3.17,0-5.44-.84-6.81-2.51-.62-.75-1.14-1.69-1.58-2.83-.43-1.14-.94-2.91-1.53-5.32-.38-1.55-.85-2.64-1.43-3.27-.58-.63-1.4-.98-2.48-1.03Zm-1.42-12.45l-.27,5.69v.22c0,.59.08.98.26,1.17.17.2.52.29,1.04.29,1.43,0,2.47-.37,3.12-1.11.65-.74.98-1.92.98-3.55,0-3.14-1.12-4.71-3.34-4.71-.63,0-1.08.15-1.34.44-.26.29-.41.81-.44,1.56Z"/>
        <path class="cls-2"
              d="m694.83,259.53l-11.21,22.68c-.68,1.4-1.33,2.36-1.95,2.89-.62.53-1.4.79-2.34.79-.78,0-1.48-.17-2.1-.51-.47-.26-.84-.57-1.11-.92-.27-.35-.61-.98-1.01-1.89l-9.99-22c-.55-1.24-1.05-2.08-1.5-2.53-.45-.45-1.09-.74-1.92-.89-.98-.18-1.46-.78-1.46-1.81,0-1.25.85-2.22,2.56-2.89,1.71-.68,4.16-1.01,7.35-1.01s5.76.25,7.32.76c1.56.5,2.34,1.29,2.34,2.34,0,.68-.42,1.32-1.27,1.9-.65.44-.98.85-.98,1.25,0,.36.15.87.44,1.54l3.05,6.88c.44,1.01.94,1.51,1.49,1.51s1.02-.27,1.44-.81c.42-.54.99-1.59,1.71-3.17,1.29-2.83,2.03-4.5,2.25-5.02.21-.51.32-.91.32-1.18,0-.55-.38-1.03-1.15-1.42-.85-.44-1.27-1-1.27-1.68,0-1.94,2.6-2.91,7.79-2.91,2.59,0,4.42.21,5.48.62,1.07.42,1.6,1.13,1.6,2.14,0,1.2-.7,1.9-2.1,2.08-.99.11-1.64.28-1.93.49-.52.37-1.14,1.29-1.86,2.76Z"/>
        <path class="cls-2"
              d="m712.55,251.45c1.86,0,3.6.16,5.25.49,2.21.44,3.32,1.38,3.32,2.81,0,.47-.11.83-.33,1.06-.22.24-.78.58-1.67,1.04-.75.37-1.24,1.2-1.48,2.47-.24,1.27-.35,3.74-.35,7.42,0,6.22.15,10.07.46,11.55.11.47.29.83.52,1.09.24.25.65.53,1.23.82,1.07.49,1.61,1.2,1.61,2.12,0,1.3-.99,2.2-2.98,2.69-2.15.52-4.78.78-7.89.78-5.31,0-7.96-1.01-7.96-3.03,0-.73.52-1.42,1.56-2.05.8-.49,1.27-1.16,1.42-2,.31-1.86.46-5.79.46-11.82,0-4.17-.21-6.84-.63-8.01-.23-.67-.77-1.27-1.64-1.81-.67-.44-1.12-.81-1.34-1.1-.23-.29-.34-.67-.34-1.12,0-.7.34-1.26,1.01-1.67.68-.42,1.87-.79,3.58-1.11,2.03-.41,4.09-.61,6.18-.61Z"/>
        <path class="cls-2"
              d="m742.13,251.28c2.38,0,4.67.52,6.88,1.56,1.04.49,1.77.73,2.17.73.29,0,.76-.07,1.42-.22.21-.05.45-.07.71-.07.85,0,1.59.39,2.22,1.17,1.56,1.89,2.34,4.23,2.34,7.03,0,1.97-.68,3.41-2.03,4.32-.73.49-1.55.73-2.47.73-.83,0-1.51-.18-2.03-.54-.52-.36-1.03-.99-1.51-1.9-.7-1.29-1.27-2.21-1.71-2.77s-.98-1.07-1.61-1.53c-1.58-1.11-3.23-1.66-4.96-1.66s-3.01.61-3.99,1.82c-.99,1.21-1.48,2.84-1.48,4.87,0,2.8.71,5.36,2.12,7.69,1.92,3.11,4.67,4.66,8.25,4.66,1.32,0,2.62-.22,3.92-.66,1.29-.44,2.3-1.01,3.02-1.71.62-.59,1.12-.88,1.51-.88.57,0,1.06.26,1.46.79.41.53.61,1.17.61,1.92,0,.94-.29,2-.85,3.17-.57,1.17-1.25,2.09-2.05,2.76-.34.28-1.05.52-2.12.73-.62.11-1.44.42-2.47.9-2.41,1.16-4.92,1.73-7.52,1.73s-5.43-.61-8.13-1.83c-3.14-1.42-5.62-3.59-7.45-6.52-1.79-2.85-2.69-5.83-2.69-8.94,0-3.61,1.12-6.91,3.37-9.89,1.95-2.59,4.5-4.57,7.64-5.93,2.39-1.04,4.86-1.56,7.4-1.56Z"/>
        <path class="cls-2"
              d="m765.32,251.96h12.55c2.54,0,4.39-.05,5.55-.16,1.16-.11,2.3-.32,3.41-.65.34-.1.61-.15.81-.15.85,0,1.59.46,2.25,1.37,1.07,1.48,1.61,3.27,1.61,5.37,0,1.06-.22,1.89-.67,2.5-.45.61-1.06.92-1.84.92-.54,0-.96-.11-1.26-.33-.3-.22-.7-.71-1.21-1.48-.72-1.09-1.62-1.82-2.72-2.19-1.1-.37-2.9-.55-5.41-.55-1.87,0-3.01.33-3.42,1-.21.36-.34.84-.38,1.44-.04.6-.06,2.14-.06,4.61,0,.98.16,1.58.49,1.82.33.24,1.18.35,2.56.35.68,0,1.18-.14,1.49-.43.31-.28.5-.79.59-1.53.11-.94.23-1.59.35-1.94.12-.35.35-.65.67-.92.34-.29.74-.44,1.2-.44.67,0,1.24.32,1.71.95.34.47.63,1.31.87,2.5.24,1.2.35,2.45.35,3.75,0,2.57-.4,4.68-1.2,6.32-.44.9-1.11,1.34-2,1.34-.55,0-.94-.14-1.15-.43-.21-.28-.38-.87-.49-1.77-.24-1.84-1.32-2.76-3.22-2.76-.73,0-1.23.23-1.5.7-.27.46-.4,1.32-.4,2.58,0,.77.05,1.75.16,2.97.11,1.21.21,2.01.33,2.41.13.49.53.83,1.21,1.01.68.19,1.8.28,3.38.28,2.44,0,4.28-.31,5.52-.94,1.24-.63,2.25-1.76,3.03-3.41.46-.94.87-1.58,1.23-1.9.37-.33.84-.49,1.43-.49.68,0,1.25.3,1.7.89.45.59.67,1.34.67,2.23,0,.98-.25,2.2-.76,3.66-.5,1.46-1.12,2.77-1.86,3.91-.38.55-.68.92-.93,1.11s-.55.28-.93.28c-.31,0-.76-.05-1.34-.15-1.04-.2-2.43-.32-4.17-.37h-20.7c-.83,0-1.47-.18-1.93-.55-.46-.37-.68-.88-.68-1.55,0-.47.1-.81.29-1.03s.64-.48,1.34-.81c.49-.21.85-.47,1.09-.78.24-.31.42-.76.55-1.37.54-2.46.81-5.77.81-9.94,0-6.28-.39-10.25-1.17-11.89-.16-.33-.34-.55-.54-.68-.2-.13-.6-.28-1.22-.46-.93-.28-1.39-.9-1.39-1.86,0-.52.15-.98.46-1.39.31-.41.72-.68,1.22-.81.63-.15,1.86-.22,3.69-.22Z"/>
        <path class="cls-2"
              d="m810.31,251.28c1.68,0,3.87.42,6.59,1.25.33.1.59.15.78.15.16,0,.65-.15,1.46-.44.26-.1.54-.15.83-.15,1.09,0,2.24.86,3.46,2.59,1.21,1.73,1.82,3.37,1.82,4.93,0,.91-.27,1.68-.82,2.31-.54.63-1.21.94-1.99.94-.65,0-1.18-.13-1.59-.39-.41-.26-1.3-1.03-2.69-2.32-1.95-1.82-3.87-2.73-5.76-2.73-.91,0-1.64.22-2.19.66-.54.44-.82,1.02-.82,1.73,0,1.42,1.25,2.48,3.74,3.2,3.37.99,5.53,1.72,6.47,2.17,4.15,2.02,6.23,4.99,6.23,8.91,0,3.47-1.42,6.3-4.25,8.5-2.9,2.25-6.68,3.37-11.35,3.37-2.08,0-4.28-.25-6.59-.75-2.31-.5-3.98-1.08-5-1.75-.78-.52-1.49-1.66-2.11-3.41-.63-1.75-.94-3.45-.94-5.11,0-.8.16-1.4.49-1.81.41-.52.92-.78,1.54-.78s1.21.32,1.78.95c.34.36,1.15,1.51,2.42,3.44.6.91,1.56,1.67,2.87,2.27,1.31.6,2.66.9,4.06.9,1.2,0,2.18-.22,2.93-.67.75-.45,1.12-1.02,1.12-1.72,0-.65-.29-1.21-.88-1.68-.59-.47-1.54-.91-2.86-1.32-2.33-.73-4.1-1.4-5.32-2.01s-2.36-1.38-3.42-2.31c-2.57-2.28-3.86-4.87-3.86-7.76,0-1.43.33-2.83,1-4.19.67-1.36,1.61-2.53,2.83-3.53,2.73-2.29,6.07-3.44,10.01-3.44Z"/>
        <path class="cls-1"
              d="m258.5,401s-5.89,6.75-5.89,17.25,12,27.32,12,38.36c0,14.79-11.04,20.04-11.04,20.04,0,0,20.25-1.61,20.25-19.82s-16.68-29.39-15.32-55.82Z"/>
        <path class="cls-7"
              d="m411.95,406.12c-11.21-3.98-16.31-5.55-24.45-16.37,0,0-1.18,12.64,11.14,21.11,12.32,8.46,21.43,5.09,27.91,17.95,2.62-8.36-1.05-17.88-14.6-22.69Z"/>
        <path class="cls-5"
              d="m417.82,367.68c-3.38-1.34-5.45-2.84-6.65-3.92,12.07-8.75,22.75-19.2,32.04-30.95-29.48,26.73-60.45,45.71-106.29,45.71-77.99,0-141.22-63.23-141.22-141.22s62.15-141.22,140.15-141.22c37.56,0,54.22,8.07,82.26,25.09-15.59-15.04-40.74-28.28-70-33.57-17.75-21.49,5.03-73.02,5.03-73.02-15.29,6-19.29,23.89-25.86,46.46-3.99,13.72-10.68,20.87-15.31,24.38-3.91.23-7.79.6-11.62,1.12-10.26-7.15-15.51-16.27-15.51-27.11,0-12.43,17.29-25.18,17.29-39.14,0-16.14-16.57-20.29-16.57-20.29,14,21.57-3.57,28.29-19.43,41-15.86,12.71-10,24.14-5.57,33.43,3.1,6.49,6.82,15.07,8.78,19.65-11.85,4.24-23.02,9.89-33.32,16.76-16.46-12.13-28.11-15.14-46.32-26.41-21-13-15.64-39.14-15.64-39.14-25.71,38.57-1.93,60.29,14.5,69.57,10.97,6.2,17.8,13.8,21.12,18.17-10.58,11.16-19.5,23.91-26.36,37.85-35.86-31.21-57.58-7.65-78.69,4.38-21.43,12.21-43.61,0-43.61,0,0,0,19.46,20.75,37.54,20.75s35-17.14,49.57-17.14c10.71,0,21.26,9.79,26.1,14.99-4.31,14.15-6.63,29.17-6.63,44.73,0,2.48.06,4.95.18,7.41-4.69-2.33-10.17-3.85-16.51-3.85-27.86,0-42.14,31.71-87.14,58.71-31.59,18.95-64.14-3.43-64.14-3.43,11.57,10.86,31.86,30.43,62.29,30.43s43.57-17.71,67.29-35.57c18.7-14.08,38.01-9.42,45.35-6.82,4.02,12.54,9.61,24.38,16.53,35.28-41.05,8.94-26.48,50.45-60.24,90.75-24.11,28.78-63.29,30.36-63.29,30.36,0,0,7.57,7.14,23.14,7.14,47,0,71.43-43.93,82.79-72.21,9.38-23.35,25.75-34.57,31.18-37.78,2.4,2.76,4.89,5.44,7.47,8.03-5.68,5.63-12.19,14.12-12.19,23.43,0,16.5,11.89,24.54,11.89,44.46s-12.21,30.86-12.21,30.86c0,0,33-11.14,33-39,0-15.12-4.16-25.91-.88-43.16,15.39,10.96,32.89,19.15,51.77,23.85-3.81,7.06-8.24,17.22-8.24,26.28,0,15.86,15.54,24.32,30.64,37.82s7.71,27.86,7.71,27.86c0,0,12.14-4.14,12.14-20.71s-15.14-26.57-23.14-39.43c-5.67-9.12-3-21.82-.96-28.44,6.23.77,12.57,1.17,19.01,1.17s12.32-.34,18.22-.97c4.02,13.96,13.95,15.66,27.34,25.7,14.14,10.61,11.68,27.43,11.68,27.43,12.54-18,.86-31.71-7.71-41.36-6.22-7-9.33-12.75-10.57-15.37,12.41-3.04,23.91-7.52,34.52-13.23,1.95,2.33,6.06,5.7,13.99,6.85,12.54,1.82,21.86,1.07,32.46,9.96-9.64-15.86-16.93-20.89-23.14-23.36Z"/>
        <path class="cls-6"
              d="m143.43,334.06c8.43-16.37,24.18-25.49,24.18-25.49-31.53-.14-39.9,27.43-55.33,42.86-15.43,15.43-37,4.14-37,4.14,0,0,5.98,14.04,24.59,14.04,24.43,0,35.12-19.18,43.55-35.55Z"/>
        <path class="cls-10"
              d="m158.86,213.61c-23.21-16.54-38.04.27-51.57,10.54-14.21,10.79-32,5.57-32,5.57,20.46,18.79,42.06,3.44,57.7-8.35,15.64-11.79,25.87-7.76,25.87-7.76Z"/>
        <path class="cls-8"
              d="m139.79,129.43c12.11,0,15.11-4.04,26.07-4.04,8.89,0,19.14,14.07,19.14,14.07,0,0-1.39-13.82-11.89-21.43-10.5-7.61-29.89-1.29-37.61-1.29s-15.51-4.71-15.51-4.71c1.12,6,6.73,17.39,19.8,17.39Z"/>
        <path class="cls-9"
              d="m219.86,65c0,22,20.86,27,20.86,27-23.14-15.57-7.14-45.14-7.14-61.14s-14.29-20.14-14.29-20.14c8.29,16.71.57,32.29.57,54.29Z"/>
        <path class="cls-4"
              d="m336.55,426.07c8,9.14,15.16,11.79,8.02,25.93,0,0,8.71-3,8.71-12s-15.57-18.86-21.29-32c-5.29,3.25-3.45,8.93,4.55,18.07Z"/>
    </g>
</svg>
