<?xml version="1.0" encoding="UTF-8"?><svg id="Layer_2" xmlns="http://www.w3.org/2000/svg" width="443.21" height="479.43" xmlns:xlink="http://www.w3.org/1999/xlink" viewBox="0 0 443.21 479.43"><defs><linearGradient id="linear-gradient" x1="263.21" y1="-2.71" x2="263.21" y2="473.51" gradientUnits="userSpaceOnUse"><stop offset="0" stop-color="#e4a426"/><stop offset=".43" stop-color="#e4a125"/><stop offset=".68" stop-color="#e79924"/><stop offset=".89" stop-color="#ec8a22"/><stop offset=".96" stop-color="#ef8422"/></linearGradient><linearGradient id="linear-gradient-2" x1="407.41" y1="-2.71" x2="407.41" y2="473.51" xlink:href="#linear-gradient"/><linearGradient id="linear-gradient-3" x1="221.61" y1="-2.71" x2="221.61" y2="473.51" xlink:href="#linear-gradient"/><linearGradient id="linear-gradient-4" x1="121.45" y1="-2.71" x2="121.45" y2="473.51" xlink:href="#linear-gradient"/><linearGradient id="linear-gradient-5" x1="117.07" y1="-2.71" x2="117.07" y2="473.51" xlink:href="#linear-gradient"/><linearGradient id="linear-gradient-6" x1="152.49" y1="-2.71" x2="152.49" y2="473.51" xlink:href="#linear-gradient"/><linearGradient id="linear-gradient-7" x1="230" y1="-2.71" x2="230" y2="473.51" xlink:href="#linear-gradient"/><linearGradient id="linear-gradient-8" x1="341.15" y1="-2.71" x2="341.15" y2="473.51" xlink:href="#linear-gradient"/></defs><g id="Layer_1-2"><path d="m258.5,401s-5.89,6.75-5.89,17.25,12,27.32,12,38.36c0,14.79-11.04,20.04-11.04,20.04,0,0,20.25-1.61,20.25-19.82s-16.68-29.39-15.32-55.82Z" style="fill:url(#linear-gradient);"/><path d="m411.95,406.12c-11.21-3.98-16.31-5.55-24.45-16.37,0,0-1.18,12.64,11.14,21.11,12.32,8.46,21.43,5.09,27.91,17.95,2.62-8.36-1.05-17.88-14.6-22.69Z" style="fill:url(#linear-gradient-2);"/><path d="m417.82,367.68c-3.38-1.34-5.45-2.84-6.65-3.92,12.07-8.75,22.75-19.2,32.04-30.95-29.48,26.73-60.45,45.71-106.29,45.71-77.99,0-141.22-63.23-141.22-141.22s62.15-141.22,140.15-141.22c37.56,0,54.22,8.07,82.26,25.09-15.59-15.04-40.74-28.28-70-33.57-17.75-21.49,5.03-73.02,5.03-73.02-15.29,6-19.29,23.89-25.86,46.46-3.99,13.72-10.68,20.87-15.31,24.38-3.91.23-7.79.6-11.62,1.12-10.26-7.15-15.51-16.27-15.51-27.11,0-12.43,17.29-25.18,17.29-39.14,0-16.14-16.57-20.29-16.57-20.29,14,21.57-3.57,28.29-19.43,41-15.86,12.71-10,24.14-5.57,33.43,3.1,6.49,6.82,15.07,8.78,19.65-11.85,4.24-23.02,9.89-33.32,16.76-16.46-12.13-28.11-15.14-46.32-26.41-21-13-15.64-39.14-15.64-39.14-25.71,38.57-1.93,60.29,14.5,69.57,10.97,6.2,17.8,13.8,21.12,18.17-10.58,11.16-19.5,23.91-26.36,37.85-35.86-31.21-57.58-7.65-78.69,4.38-21.43,12.21-43.61,0-43.61,0,0,0,19.46,20.75,37.54,20.75s35-17.14,49.57-17.14c10.71,0,21.26,9.79,26.1,14.99-4.31,14.15-6.63,29.17-6.63,44.73,0,2.48.06,4.95.18,7.41-4.69-2.33-10.17-3.85-16.51-3.85-27.86,0-42.14,31.71-87.14,58.71-31.59,18.95-64.14-3.43-64.14-3.43,11.57,10.86,31.86,30.43,62.29,30.43s43.57-17.71,67.29-35.57c18.7-14.08,38.01-9.42,45.35-6.82,4.02,12.54,9.61,24.38,16.53,35.28-41.05,8.94-26.48,50.45-60.24,90.75-24.11,28.78-63.29,30.36-63.29,30.36,0,0,7.57,7.14,23.14,7.14,47,0,71.43-43.93,82.79-72.21,9.38-23.35,25.75-34.57,31.18-37.78,2.4,2.76,4.89,5.44,7.47,8.03-5.68,5.63-12.19,14.12-12.19,23.43,0,16.5,11.89,24.54,11.89,44.46s-12.21,30.86-12.21,30.86c0,0,33-11.14,33-39,0-15.12-4.16-25.91-.88-43.16,15.39,10.96,32.89,19.15,51.77,23.85-3.81,7.06-8.24,17.22-8.24,26.28,0,15.86,15.54,24.32,30.64,37.82s7.71,27.86,7.71,27.86c0,0,12.14-4.14,12.14-20.71s-15.14-26.57-23.14-39.43c-5.67-9.12-3-21.82-.96-28.44,6.23.77,12.57,1.17,19.01,1.17s12.32-.34,18.22-.97c4.02,13.96,13.95,15.66,27.34,25.7,14.14,10.61,11.68,27.43,11.68,27.43,12.54-18,.86-31.71-7.71-41.36-6.22-7-9.33-12.75-10.57-15.37,12.41-3.04,23.91-7.52,34.52-13.23,1.95,2.33,6.06,5.7,13.99,6.85,12.54,1.82,21.86,1.07,32.46,9.96-9.64-15.86-16.93-20.89-23.14-23.36Z" style="fill:url(#linear-gradient-3);"/><path d="m143.43,334.06c8.43-16.37,24.18-25.49,24.18-25.49-31.53-.14-39.9,27.43-55.33,42.86-15.43,15.43-37,4.14-37,4.14,0,0,5.98,14.04,24.59,14.04,24.43,0,35.12-19.18,43.55-35.55Z" style="fill:url(#linear-gradient-4);"/><path d="m158.86,213.61c-23.21-16.54-38.04.27-51.57,10.54-14.21,10.79-32,5.57-32,5.57,20.46,18.79,42.06,3.44,57.7-8.35,15.64-11.79,25.87-7.76,25.87-7.76Z" style="fill:url(#linear-gradient-5);"/><path d="m139.79,129.43c12.11,0,15.11-4.04,26.07-4.04,8.89,0,19.14,14.07,19.14,14.07,0,0-1.39-13.82-11.89-21.43-10.5-7.61-29.89-1.29-37.61-1.29s-15.51-4.71-15.51-4.71c1.12,6,6.73,17.39,19.8,17.39Z" style="fill:url(#linear-gradient-6);"/><path d="m219.86,65c0,22,20.86,27,20.86,27-23.14-15.57-7.14-45.14-7.14-61.14s-14.29-20.14-14.29-20.14c8.29,16.71.57,32.29.57,54.29Z" style="fill:url(#linear-gradient-7);"/><path d="m336.55,426.07c8,9.14,15.16,11.79,8.02,25.93,0,0,8.71-3,8.71-12s-15.57-18.86-21.29-32c-5.29,3.25-3.45,8.93,4.55,18.07Z" style="fill:url(#linear-gradient-8);"/></g></svg>