<svg version="1.1" class="w-auto h-1.8rm" xmlns="http://www.w3.org/2000/svg"
     x="0px" y="0px" viewBox="0 0 266.1 75" style="enable-background:new 0 0 266.1 75;" xml:space="preserve">
<path class="st0"
      d="M33.9,0h11.3c0.5,0,0.9,0.4,0.9,0.9v55.6c0,0.5-0.4,0.9-0.9,0.9h-8.8c-1.9,0-3.4-1.5-3.4-3.4v-1 c-1.8,2.5-2.8,3.4-4.6,4.3c-2.3,1.1-5.1,1.7-8.2,1.7C8.1,58.8,0,50.5,0,37.9C0,31,2.1,25.6,6.5,21.6c4-3.5,8.9-5.6,13.9-5.6 c5.2,0,8.8,1.5,12.6,5.2V0.9C33.1,0.4,33.5,0,33.9,0z M13.9,37.9c0,6,4.2,10.7,9.7,10.7c5.3,0,9.4-4.6,9.4-10.7 c0-6.4-4-11.1-9.4-11.1C18,26.8,13.9,31.5,13.9,37.9z M89.1,17.5c0.5,0,0.9,0.4,0.9,0.9v24.1c0,6.1-1.4,9.5-4.7,12.3 c-3.4,2.7-7.9,4-13.6,4c-5.9,0-11-1.5-14.2-4.4c-3-2.6-4.4-6.4-4.4-11.9V18.4c0-0.5,0.4-0.9,0.9-0.9h11.3c0.5,0,0.9,0.4,0.9,0.9 v23.2c0,4.1,2,6.4,5.5,6.4c3.3,0,5.2-2.1,5.2-5.5V18.4c0-0.5,0.4-0.9,0.9-0.9H89.1z M110,21v0.3c3.1-3.7,6.9-5.3,12.4-5.3 c3.8,0,7.5,0.9,10.7,2.7c6.7,3.9,10.2,10.4,10.2,19c0,13-7.9,21.1-20.4,21.1c-5.4,0-9.6-1.6-12.8-5V74c0,0.5-0.4,0.9-0.9,0.9H97.8 c-0.5,0-0.9-0.4-0.9-0.9V18.4c0-0.5,0.4-0.9,0.9-0.9h8.8C108.5,17.5,110,19.1,110,21z M110,37.9c0,6.4,3.7,10.7,9.4,10.7 c5.8,0,10-4.5,10-10.6c0-6.4-4-11.2-9.5-11.2C114.1,26.8,110,31.4,110,37.9z M161.1,18.4v4.6c1-2.9,1.8-4.1,3.4-5.2 c1.5-1.1,3.7-1.7,5.8-1.7h0.4c0.5,0,0.9,0.4,0.9,0.9v11.6c0,0.5-0.4,0.9-0.9,0.9c-0.6-0.1-1.1-0.1-1.5-0.1c-2.9,0-5.4,1.2-6.8,3.2 c-1,1.4-1.3,2.8-1.3,6.2v17.9c0,0.5-0.4,0.9-0.9,0.9h-11.3c-0.5,0-0.9-0.4-0.9-0.9V18.4c0-0.5,0.4-0.9,0.9-0.9h11.3 C160.7,17.5,161.1,17.9,161.1,18.4z M207.8,17.5h11.3c0.5,0,0.9,0.4,0.9,0.9v38.1c0,0.5-0.4,0.9-0.9,0.9h-8.8 c-1.9,0-3.4-1.5-3.4-3.4v-1c-3.6,4.1-7.8,6-13.5,6c-11.3,0-19.5-8.7-19.5-20.9c0-12.7,8.7-22,20.6-22c5.1,0,8.5,1.6,12.4,5.8v-3.4 C206.9,17.9,207.3,17.5,207.8,17.5z M187.8,37.7c0,6.1,4.1,10.8,9.4,10.8c5.4,0,9.8-5,9.8-11c0-6.4-4-10.7-9.7-10.7 C191.8,26.8,187.8,31.4,187.8,37.7z M253.3,17.5h11.9c0.6,0,1,0.6,0.8,1.2l-19.2,50.8c-1.3,3.3-4.5,5.6-8,5.6H232 c-0.6,0-1-0.6-0.8-1.2l6.7-17.3l-13.4-37.9c-0.2-0.6,0.2-1.1,0.8-1.1h12c0.4,0,0.7,0.2,0.8,0.6l6.7,20.3l7.8-20.3 C252.6,17.7,252.9,17.5,253.3,17.5z"></path></svg>
